<svg width="80" height="40" viewBox="0 0 60 32" fill="none" xmlns="http://www.w3.org/2000/svg">
  <g transform="translate(-38, 0)">
    <path d="M93.8924 23.1187C93.5778 23.1187 93.3082 23.0116 93.0819 22.7993C92.8537 22.5861 92.74 22.1962 92.74 21.6279V6L89.2802 7.26537V22.2188C89.2802 22.897 89.3835 23.4766 89.5873 23.9567C89.7911 24.4395 90.0653 24.8294 90.4109 25.1281C90.7547 25.4278 91.1585 25.6438 91.6224 25.7782C92.0927 25.913 92.5796 25.9809 93.0687 25.9801C93.7433 25.9805 94.41 25.835 95.0231 25.5536V22.7636C94.6897 22.9913 94.2961 23.1149 93.8924 23.1187ZM84.7939 20.7317C84.5459 21.1253 84.2097 21.4926 83.789 21.8364C83.306 22.2349 82.7597 22.5496 82.1727 22.7674C81.7348 22.9334 81.2716 23.0224 80.8034 23.0304C80.3752 23.0343 79.9492 22.9686 79.5421 22.8359C79.146 22.7058 78.7748 22.5096 78.4442 22.2554C78.1137 22.005 77.8178 21.7119 77.5643 21.3836L78.8565 20.9111L82.0703 19.7359L87.7804 17.6467C87.7231 17.3996 87.6658 17.1591 87.6066 16.9299C87.5512 16.7077 87.4851 16.4882 87.4085 16.2724C87.0478 15.2803 86.5351 14.4415 85.8701 13.7529C85.2254 13.0819 84.4525 12.5471 83.5974 12.1803C82.744 11.8193 81.831 11.6202 80.9048 11.5932C79.9617 11.5616 79.0215 11.7135 78.1362 12.0403C77.2217 12.3669 76.3844 12.8786 75.6766 13.5434C74.9944 14.1806 74.4371 14.9395 74.033 15.781C73.6323 16.6201 73.4007 17.5298 73.3512 18.4583C73.2962 19.4199 73.44 20.3825 73.7738 21.2859C74.0958 22.1918 74.6009 23.0217 75.2577 23.7237C75.8881 24.4003 76.6432 24.9486 77.4816 25.3385C78.329 25.7256 79.2427 25.9469 80.1732 25.9905C81.0833 26.0384 81.9914 25.9059 82.8977 25.5922C83.8689 25.2621 84.779 24.7739 85.5912 24.1474C86.3388 23.563 87.029 22.7749 87.6724 21.7848L84.7939 20.7317ZM79.1214 14.8266C79.907 14.5309 80.77 14.512 81.5679 14.7731C82.3896 15.0352 83.0715 15.5283 83.6171 16.2507L82.0694 16.8163L76.6298 18.805C76.5857 17.9003 76.7913 17.0821 77.2459 16.3531C77.6774 15.6441 78.3396 15.1051 79.1214 14.8266ZM73.7917 11.9577L68.6855 25.6476H65.3459L60.2143 11.9577H63.9334L67.0147 21.1319L70.098 11.9577H73.7917ZM57.7331 20.7317C57.4852 21.1244 57.1489 21.4926 56.7282 21.8364C56.2452 22.2346 55.6989 22.549 55.1119 22.7664C54.6741 22.9324 54.2108 23.0214 53.7426 23.0295C53.3145 23.0337 52.8885 22.9683 52.4813 22.8359C52.0852 22.7058 51.714 22.5096 51.3835 22.2554C51.0529 22.005 50.757 21.7119 50.5035 21.3836L51.7958 20.9102L55.0086 19.7359L60.7187 17.6467C60.6641 17.4071 60.6065 17.1681 60.5459 16.9299C60.4904 16.7077 60.4243 16.4882 60.3477 16.2724C59.9871 15.2803 59.4743 14.4415 58.8094 13.7529C58.1646 13.0819 57.3918 12.5471 56.5366 12.1803C55.6833 11.8193 54.7702 11.6202 53.8441 11.5932C52.901 11.5616 51.9607 11.7135 51.0754 12.0403C50.1606 12.3668 49.323 12.8785 48.6149 13.5434C47.9328 14.1803 47.3755 14.9389 46.9713 15.7801C46.5709 16.6192 46.3396 17.5289 46.2905 18.4574C46.2354 19.419 46.3793 20.3816 46.7131 21.285C47.0349 22.1912 47.54 23.0214 48.1969 23.7237C48.8272 24.4003 49.5824 24.9487 50.4208 25.3385C51.2683 25.7256 52.1819 25.9469 53.1125 25.9905C54.0225 26.0374 54.9307 25.9059 55.8369 25.5912C56.8081 25.2611 57.7182 24.773 58.5304 24.1464C59.278 23.563 59.9683 22.7749 60.6116 21.7848L57.7331 20.7317ZM52.0606 14.8257C52.8463 14.53 53.7093 14.5111 54.5071 14.7721C55.3279 15.0352 56.0098 15.5283 56.5563 16.2498L55.0086 16.8153L49.569 18.805C49.5249 17.8994 49.7306 17.0812 50.1851 16.3531C50.6161 15.6438 51.278 15.1044 52.0597 14.8257H52.0606ZM44.6131 23.1187C44.2976 23.1187 44.028 23.0116 43.8017 22.7993C43.5735 22.5861 43.4598 22.1962 43.4598 21.6279V6L40 7.26537V22.2188C40 22.897 40.1033 23.4766 40.3071 23.9567C40.5109 24.4395 40.7851 24.8294 41.1298 25.1281C41.4735 25.4278 41.8783 25.6438 42.3413 25.7782C42.8119 25.913 43.299 25.981 43.7885 25.9801C44.4628 25.9804 45.1291 25.8349 45.742 25.5536V22.7636C45.4088 22.9912 45.0156 23.1148 44.6122 23.1187H44.6131Z" fill="#202939"/>
  </g>
</svg>
