<svg width="32" height="32" viewBox="0 0 32 32" fill="none" xmlns="http://www.w3.org/2000/svg">
<g clip-path="url(#clip0_6201_16495)">
<path d="M0.114465 20.7116L15.9409 26.4689C15.9792 26.4832 16.0213 26.4832 16.0595 26.4689L31.886 20.7116C31.9195 20.6994 31.9485 20.6772 31.969 20.648C31.9895 20.6187 32.0005 20.5839 32.0005 20.5482C32.0005 20.5125 31.9895 20.4777 31.969 20.4484C31.9485 20.4192 31.9195 20.397 31.886 20.3848L16.0595 14.614C16.0211 14.6 15.9789 14.6 15.9405 14.614L0.114465 20.3848C0.0809241 20.397 0.0519448 20.4192 0.0314655 20.4484C0.0109862 20.4777 0 20.5125 0 20.5482C0 20.5839 0.0109862 20.6187 0.0314655 20.648C0.0519448 20.6772 0.0809241 20.6994 0.114465 20.7116Z" fill="url(#paint0_linear_6201_16495)"/>
<path d="M0.11409 15.9091L15.9406 21.6664C15.9789 21.6803 16.0208 21.6803 16.0591 21.6664L31.8856 15.9091C31.9192 15.8969 31.9481 15.8747 31.9686 15.8455C31.9891 15.8162 32.0001 15.7814 32.0001 15.7457C32.0001 15.71 31.9891 15.6751 31.9686 15.6459C31.9481 15.6167 31.9192 15.5944 31.8856 15.5823L16.0591 9.81153C16.0208 9.7972 15.9785 9.7972 15.9401 9.81153L0.11409 15.5818C0.0804019 15.5939 0.0512687 15.6161 0.0306728 15.6454C0.0100769 15.6747 -0.000976562 15.7097 -0.000976562 15.7455C-0.000976563 15.7813 0.0100769 15.8162 0.0306728 15.8455C0.0512687 15.8748 0.0804019 15.897 0.11409 15.9091Z" fill="url(#paint1_linear_6201_16495)"/>
<path d="M0.11409 11.1081L15.9406 16.8658C15.9789 16.8797 16.0208 16.8797 16.0591 16.8658L31.8856 11.1081C31.9192 11.0959 31.9481 11.0737 31.9686 11.0445C31.9891 11.0152 32.0001 10.9804 32.0001 10.9447C32.0001 10.909 31.9891 10.8741 31.9686 10.8449C31.9481 10.8157 31.9192 10.7934 31.8856 10.7813L16.0591 5.01052C16.0207 4.99649 15.9786 4.99649 15.9401 5.01052L0.11409 10.7808C0.0804019 10.7929 0.0512687 10.8151 0.0306728 10.8444C0.0100769 10.8737 -0.000976563 10.9086 -0.000976562 10.9445C-0.000976562 10.9803 0.0100769 11.0152 0.0306728 11.0445C0.0512687 11.0738 0.0804019 11.096 0.11409 11.1081Z" fill="url(#paint2_linear_6201_16495)"/>
</g>
<defs>
<linearGradient id="paint0_linear_6201_16495" x1="16" y1="15.7893" x2="16" y2="25.0606" gradientUnits="userSpaceOnUse">
<stop stop-color="#8E78FF"/>
<stop offset="1" stop-color="#5870F3"/>
</linearGradient>
<linearGradient id="paint1_linear_6201_16495" x1="15.9996" y1="9.80066" x2="15.9996" y2="21.6768" gradientUnits="userSpaceOnUse">
<stop stop-color="#179BFF"/>
<stop offset="0.68" stop-color="#87BAFF" stop-opacity="0.9"/>
<stop offset="1" stop-color="#8EFFFF" stop-opacity="0.7"/>
</linearGradient>
<linearGradient id="paint2_linear_6201_16495" x1="15.9996" y1="5.16699" x2="15.9996" y2="16.6594" gradientUnits="userSpaceOnUse">
<stop stop-color="#0EEFFE"/>
<stop offset="0.66" stop-color="#93E7FF" stop-opacity="0.95"/>
<stop offset="1" stop-color="#C5FFFF" stop-opacity="0.7"/>
</linearGradient>
<clipPath id="clip0_6201_16495">
<rect width="32" height="32" fill="white"/>
</clipPath>
</defs>
</svg>
