<svg width="96" height="32" viewBox="0 0 96 32" fill="none" xmlns="http://www.w3.org/2000/svg">
<g clip-path="url(#clip0_6201_16495)">
<path d="M0.114465 20.7116L15.9409 26.4689C15.9792 26.4832 16.0213 26.4832 16.0595 26.4689L31.886 20.7116C31.9195 20.6994 31.9485 20.6772 31.969 20.648C31.9895 20.6187 32.0005 20.5839 32.0005 20.5482C32.0005 20.5125 31.9895 20.4777 31.969 20.4484C31.9485 20.4192 31.9195 20.397 31.886 20.3848L16.0595 14.614C16.0211 14.6 15.9789 14.6 15.9405 14.614L0.114465 20.3848C0.0809241 20.397 0.0519448 20.4192 0.0314655 20.4484C0.0109862 20.4777 0 20.5125 0 20.5482C0 20.5839 0.0109862 20.6187 0.0314655 20.648C0.0519448 20.6772 0.0809241 20.6994 0.114465 20.7116Z" fill="url(#paint0_linear_6201_16495)"/>
<path d="M0.11409 15.9091L15.9406 21.6664C15.9789 21.6803 16.0208 21.6803 16.0591 21.6664L31.8856 15.9091C31.9192 15.8969 31.9481 15.8747 31.9686 15.8455C31.9891 15.8162 32.0001 15.7814 32.0001 15.7457C32.0001 15.71 31.9891 15.6751 31.9686 15.6459C31.9481 15.6167 31.9192 15.5944 31.8856 15.5823L16.0591 9.81153C16.0208 9.7972 15.9785 9.7972 15.9401 9.81153L0.11409 15.5818C0.0804019 15.5939 0.0512687 15.6161 0.0306728 15.6454C0.0100769 15.6747 -0.000976562 15.7097 -0.000976562 15.7455C-0.000976563 15.7813 0.0100769 15.8162 0.0306728 15.8455C0.0512687 15.8748 0.0804019 15.897 0.11409 15.9091Z" fill="url(#paint1_linear_6201_16495)"/>
<path d="M0.11409 11.1081L15.9406 16.8658C15.9789 16.8797 16.0208 16.8797 16.0591 16.8658L31.8856 11.1081C31.9192 11.0959 31.9481 11.0737 31.9686 11.0445C31.9891 11.0152 32.0001 10.9804 32.0001 10.9447C32.0001 10.909 31.9891 10.8741 31.9686 10.8449C31.9481 10.8157 31.9192 10.7934 31.8856 10.7813L16.0591 5.01052C16.0207 4.99649 15.9786 4.99649 15.9401 5.01052L0.11409 10.7808C0.0804019 10.7929 0.0512687 10.8151 0.0306728 10.8444C0.0100769 10.8737 -0.000976563 10.9086 -0.000976562 10.9445C-0.000976562 10.9803 0.0100769 11.0152 0.0306728 11.0445C0.0512687 11.0738 0.0804019 11.096 0.11409 11.1081Z" fill="url(#paint2_linear_6201_16495)"/>
</g>
<path d="M93.8924 23.1187C93.5778 23.1187 93.3082 23.0116 93.0819 22.7993C92.8537 22.5861 92.74 22.1962 92.74 21.6279V6L89.2802 7.26537V22.2188C89.2802 22.897 89.3835 23.4766 89.5873 23.9567C89.7911 24.4395 90.0653 24.8294 90.4109 25.1281C90.7547 25.4278 91.1585 25.6438 91.6224 25.7782C92.0927 25.913 92.5796 25.9809 93.0687 25.9801C93.7433 25.9805 94.41 25.835 95.0231 25.5536V22.7636C94.6897 22.9913 94.2961 23.1149 93.8924 23.1187ZM84.7939 20.7317C84.5459 21.1253 84.2097 21.4926 83.789 21.8364C83.306 22.2349 82.7597 22.5496 82.1727 22.7674C81.7348 22.9334 81.2716 23.0224 80.8034 23.0304C80.3752 23.0343 79.9492 22.9686 79.5421 22.8359C79.146 22.7058 78.7748 22.5096 78.4442 22.2554C78.1137 22.005 77.8178 21.7119 77.5643 21.3836L78.8565 20.9111L82.0703 19.7359L87.7804 17.6467C87.7231 17.3996 87.6658 17.1591 87.6066 16.9299C87.5512 16.7077 87.4851 16.4882 87.4085 16.2724C87.0478 15.2803 86.5351 14.4415 85.8701 13.7529C85.2254 13.0819 84.4525 12.5471 83.5974 12.1803C82.744 11.8193 81.831 11.6202 80.9048 11.5932C79.9617 11.5616 79.0215 11.7135 78.1362 12.0403C77.2217 12.3669 76.3844 12.8786 75.6766 13.5434C74.9944 14.1806 74.4371 14.9395 74.033 15.781C73.6323 16.6201 73.4007 17.5298 73.3512 18.4583C73.2962 19.4199 73.44 20.3825 73.7738 21.2859C74.0958 22.1918 74.6009 23.0217 75.2577 23.7237C75.8881 24.4003 76.6432 24.9486 77.4816 25.3385C78.329 25.7256 79.2427 25.9469 80.1732 25.9905C81.0833 26.0384 81.9914 25.9059 82.8977 25.5922C83.8689 25.2621 84.779 24.7739 85.5912 24.1474C86.3388 23.563 87.029 22.7749 87.6724 21.7848L84.7939 20.7317ZM79.1214 14.8266C79.907 14.5309 80.77 14.512 81.5679 14.7731C82.3896 15.0352 83.0715 15.5283 83.6171 16.2507L82.0694 16.8163L76.6298 18.805C76.5857 17.9003 76.7913 17.0821 77.2459 16.3531C77.6774 15.6441 78.3396 15.1051 79.1214 14.8266ZM73.7917 11.9577L68.6855 25.6476H65.3459L60.2143 11.9577H63.9334L67.0147 21.1319L70.098 11.9577H73.7917ZM57.7331 20.7317C57.4852 21.1244 57.1489 21.4926 56.7282 21.8364C56.2452 22.2346 55.6989 22.549 55.1119 22.7664C54.6741 22.9324 54.2108 23.0214 53.7426 23.0295C53.3145 23.0337 52.8885 22.9683 52.4813 22.8359C52.0852 22.7058 51.714 22.5096 51.3835 22.2554C51.0529 22.005 50.757 21.7119 50.5035 21.3836L51.7958 20.9102L55.0086 19.7359L60.7187 17.6467C60.6641 17.4071 60.6065 17.1681 60.5459 16.9299C60.4904 16.7077 60.4243 16.4882 60.3477 16.2724C59.9871 15.2803 59.4743 14.4415 58.8094 13.7529C58.1646 13.0819 57.3918 12.5471 56.5366 12.1803C55.6833 11.8193 54.7702 11.6202 53.8441 11.5932C52.901 11.5616 51.9607 11.7135 51.0754 12.0403C50.1606 12.3668 49.323 12.8785 48.6149 13.5434C47.9328 14.1803 47.3755 14.9389 46.9713 15.7801C46.5709 16.6192 46.3396 17.5289 46.2905 18.4574C46.2354 19.419 46.3793 20.3816 46.7131 21.285C47.0349 22.1912 47.54 23.0214 48.1969 23.7237C48.8272 24.4003 49.5824 24.9487 50.4208 25.3385C51.2683 25.7256 52.1819 25.9469 53.1125 25.9905C54.0225 26.0374 54.9307 25.9059 55.8369 25.5912C56.8081 25.2611 57.7182 24.773 58.5304 24.1464C59.278 23.563 59.9683 22.7749 60.6116 21.7848L57.7331 20.7317ZM52.0606 14.8257C52.8463 14.53 53.7093 14.5111 54.5071 14.7721C55.3279 15.0352 56.0098 15.5283 56.5563 16.2498L55.0086 16.8153L49.569 18.805C49.5249 17.8994 49.7306 17.0812 50.1851 16.3531C50.6161 15.6438 51.278 15.1044 52.0597 14.8257H52.0606ZM44.6131 23.1187C44.2976 23.1187 44.028 23.0116 43.8017 22.7993C43.5735 22.5861 43.4598 22.1962 43.4598 21.6279V6L40 7.26537V22.2188C40 22.897 40.1033 23.4766 40.3071 23.9567C40.5109 24.4395 40.7851 24.8294 41.1298 25.1281C41.4735 25.4278 41.8783 25.6438 42.3413 25.7782C42.8119 25.913 43.299 25.981 43.7885 25.9801C44.4628 25.9804 45.1291 25.8349 45.742 25.5536V22.7636C45.4088 22.9912 45.0156 23.1148 44.6122 23.1187H44.6131Z" fill="#202939"/>
<defs>
<linearGradient id="paint0_linear_6201_16495" x1="16" y1="15.7893" x2="16" y2="25.0606" gradientUnits="userSpaceOnUse">
<stop stop-color="#8E78FF"/>
<stop offset="1" stop-color="#5870F3"/>
</linearGradient>
<linearGradient id="paint1_linear_6201_16495" x1="15.9996" y1="9.80066" x2="15.9996" y2="21.6768" gradientUnits="userSpaceOnUse">
<stop stop-color="#179BFF"/>
<stop offset="0.68" stop-color="#87BAFF" stop-opacity="0.9"/>
<stop offset="1" stop-color="#8EFFFF" stop-opacity="0.7"/>
</linearGradient>
<linearGradient id="paint2_linear_6201_16495" x1="15.9996" y1="5.16699" x2="15.9996" y2="16.6594" gradientUnits="userSpaceOnUse">
<stop stop-color="#0EEFFE"/>
<stop offset="0.66" stop-color="#93E7FF" stop-opacity="0.95"/>
<stop offset="1" stop-color="#C5FFFF" stop-opacity="0.7"/>
</linearGradient>
<clipPath id="clip0_6201_16495">
<rect width="32" height="32" fill="white"/>
</clipPath>
</defs>
</svg>
